<?xml version="1.0" encoding="utf-8"?>
<!-- Generator: Adobe Illustrator 16.0.0, SVG Export Plug-In . SVG Version: 6.00 Build 0)  -->
<!DOCTYPE svg PUBLIC "-//W3C//DTD SVG 1.1//EN" "http://www.w3.org/Graphics/SVG/1.1/DTD/svg11.dtd">
<svg version="1.1" id="Layer_1" xmlns="http://www.w3.org/2000/svg" xmlns:xlink="http://www.w3.org/1999/xlink" x="0px" y="0px"
	 width="300px" height="110.484px" viewBox="0 0 300 110.484" enable-background="new 0 0 300 110.484" xml:space="preserve">
<g>
	<g>
		<path fill="#FFFFFF" d="M128.521,25.211c2.171,1.107,2.423,2.104,2.423,4.777v14.719c0,2.743-0.251,3.67-2.423,4.812v0.143h11.368
			v-0.143c-2.174-1.143-2.423-2.068-2.423-4.812V29.989c0-2.673,0.249-3.67,2.423-4.777V25.07h-11.368V25.211z"/>
		<path fill="#FFFFFF" d="M119.183,47.914h-1.104V29.989c0-2.673,0.213-3.67,2.744-4.777V25.07h-11.655v0.142
			c2.174,1.107,2.389,2.104,2.389,4.777v14.719c0,2.743-0.214,3.741-1.995,4.812v0.143h17.713l0.034-7.413h-0.249
			C123.28,47.629,122.746,47.914,119.183,47.914z"/>
		<path fill="#FFFFFF" d="M105.247,45.491l-5.025-8.376c1.997-0.641,5.275-2.601,5.275-5.879c0-3.885-1.925-6.166-10.549-6.166
			H84.219v0.142c2.211,1.107,2.425,2.104,2.425,4.777v14.575c0,2.745-0.213,3.812-2.425,4.955v0.143h11.37v-0.143
			c-2.173-1.143-2.423-2.21-2.423-4.955V26.782h0.57c2.566,0,5.129,1.282,5.129,5.061c0,3.171-2.137,5.096-4.809,5.736l4.134,8.625
			c1.569,3.278,1.96,3.458,6.451,3.458h4.704v-0.143C108.134,49.089,107.136,48.664,105.247,45.491z"/>
		<path fill="#FFFFFF" d="M74.135,47.914h-2.353v-9.906h1.105c2.958,0,4.49,0.892,6.127,3.102h0.216v-7.841h-0.216
			c-1.602,2.174-3.098,3.135-6.127,3.135h-1.105v-9.621h2.531c3.028,0,4.241,1.067,6.734,5.061h0.25V25.07h-18.53v0.142
			c2.244,1.107,2.494,2.104,2.494,4.777v14.575c0,2.745-0.25,3.812-2.494,4.955v0.143h19.494v-7.413h-0.249
			C78.231,47.629,77.698,47.914,74.135,47.914z"/>
		<path fill="#FFFFFF" d="M54.605,36.617V36.44c2.709-0.249,5.952-2.423,5.952-5.595c0-4.312-3.314-5.774-10.584-5.774h-11.12v0.142
			c2.067,1.107,2.353,2.104,2.353,4.777v14.575c0,2.745-0.286,3.812-2.353,4.955v0.143H49.01c7.912,0,12.582-2.103,12.582-7.271
			C61.591,39.112,58.239,36.937,54.605,36.617z M48.795,47.986h-1.068V26.673h1.675c2.638,0,4.917,1.889,4.917,4.562
			c0,2.921-1.604,4.525-4.241,5.701v0.178c2.673,0.535,4.634,2.604,4.634,5.738C54.712,46.097,51.79,47.986,48.795,47.986z"/>
		<path fill="#FFFFFF" d="M161.201,25.211c2.137,1.107,3.062,2.104,3.062,8.34v6.664l-13.79-15.145h-9.16v0.142
			c2.211,1.143,3.493,2.246,3.493,8.482v7.377c0,6.238-0.927,7.307-3.136,8.448v0.143h9.019v-0.143
			c-2.175-1.143-3.173-2.21-3.173-8.448v-9.637l16.392,18.583h3.066V33.552c0-6.235,0.961-7.232,3.102-8.34V25.07h-8.874
			L161.201,25.211L161.201,25.211z"/>
		<path fill="#FFFFFF" d="M224.602,44.708V29.989c0-2.673,0.25-3.67,2.389-4.777V25.07h-11.332v0.142
			c2.209,1.107,2.424,2.104,2.424,4.777v14.719c0,2.743-0.215,3.67-2.424,4.812v0.143h11.332V49.52
			C224.852,48.377,224.602,47.451,224.602,44.708z"/>
		<path fill="#FFFFFF" d="M260.739,42.249c-3.779,5.381-4.313,5.665-7.878,5.665h-2.353v-9.906h1.106
			c2.958,0,4.488,0.892,6.128,3.102h0.215v-7.841h-0.215c-1.603,2.174-3.099,3.135-6.128,3.135h-1.106v-9.621h2.531
			c3.028,0,4.239,1.067,6.737,5.061h0.248V25.07h-18.531v0.142c2.242,1.107,2.494,2.104,2.494,4.777v14.575
			c0,2.745-0.252,3.812-2.494,4.955v0.143h19.492v-7.413H260.739z"/>
		<path fill="#FFFFFF" d="M237.075,45.242l-6.843-10.905l2.887-3.314c3.352-3.885,4.988-4.847,7.449-5.811V25.07h-11.19v0.142
			c3.136,0.928,3.526,2.781,1.142,5.847l-5.136,6.559l3.745,7.163c2.494,4.74,3.207,4.883,5.63,4.883h6.45V49.52
			C239.785,48.984,238.857,48.057,237.075,45.242z"/>
		<path fill="#FFFFFF" d="M202.504,29.56c0-2.104,1.678-3.385,3.281-3.385c2.423,0,4.736,2.566,6.77,5.988h0.143v-6.165
			c-1.354-0.605-3.848-1.462-6.877-1.462c-4.383,0-8.875,2.815-8.875,7.163c0,7.164,11.869,8.98,11.869,13.364
			c0,2.281-2.032,3.528-3.852,3.528c-2.779,0-5.484-3.243-7.874-7.129h-0.144v7.021c1.748,1.036,5.096,1.714,7.98,1.714
			c4.922,0,9.234-2.78,9.234-7.878C214.161,35.121,202.504,34.123,202.504,29.56z"/>
		<path fill="#FFFFFF" d="M185.611,37.792c2.031,1.143,2.316,2.39,2.316,3.957v6.309c-0.678,0.143-1.533,0.215-2.494,0.215
			c-4.383,0-7.627-3.602-7.627-10.978c0-6.308,2.604-11.12,6.948-11.12c2.888,0,5.849,2.387,8.162,5.988h0.144v-6.059
			c-1.211-0.569-3.99-1.568-7.805-1.568c-6.379,0-14.719,4.597-14.719,13.151c0,8.268,7.484,12.51,14.148,12.51
			c2.778,0,6.983-0.856,8.838-1.428h0.143v-7.093c0-2.352,0.105-2.813,1.854-3.885V37.65h-9.91v0.142H185.611z"/>
	</g>
</g>
<g>
	<g>
		<path fill="#FFFFFF" d="M60.37,86.928c1.027,0.522,1.146,0.994,1.146,2.26v6.964c0,1.298-0.119,1.737-1.146,2.276v0.066h5.378
			v-0.066c-1.028-0.539-1.146-0.979-1.146-2.276v-6.964c0-1.266,0.118-1.736,1.146-2.26v-0.067H60.37V86.928z"/>
		<path fill="#FFFFFF" d="M55.952,97.668h-0.523v-8.479c0-1.266,0.101-1.736,1.298-2.26v-0.067h-5.514v0.067
			c1.029,0.522,1.13,0.994,1.13,2.26v6.964c0,1.298-0.101,1.771-0.944,2.276v0.066h8.38l0.016-3.507h-0.118
			C57.89,97.535,57.637,97.668,55.952,97.668z"/>
		<path fill="#FFFFFF" d="M49.358,96.523L46.98,92.56c0.945-0.305,2.496-1.231,2.496-2.782c0-1.838-0.911-2.917-4.991-2.917h-5.077
			v0.067c1.046,0.522,1.147,0.994,1.147,2.26v6.896c0,1.3-0.101,1.807-1.147,2.346v0.066h5.38v-0.066
			c-1.028-0.539-1.146-1.046-1.146-2.346V87.67h0.27c1.214,0,2.427,0.607,2.427,2.396c0,1.499-1.011,2.41-2.275,2.713l1.956,4.081
			c0.743,1.551,0.928,1.636,3.053,1.636h2.226v-0.066C50.724,98.225,50.252,98.024,49.358,96.523z"/>
		<path fill="#FFFFFF" d="M34.638,97.668h-1.114v-4.687h0.523c1.399,0,2.125,0.421,2.899,1.467h0.103v-3.71h-0.103
			c-0.758,1.029-1.465,1.484-2.899,1.484h-0.523V87.67h1.198c1.433,0,2.007,0.505,3.186,2.396h0.118v-3.205h-8.768v0.066
			c1.062,0.523,1.18,0.995,1.18,2.261v6.896c0,1.3-0.119,1.807-1.18,2.346v0.066h9.223v-3.507h-0.118
			C36.576,97.535,36.324,97.668,34.638,97.668z"/>
		<path fill="#FFFFFF" d="M25.398,92.324V92.24c1.282-0.117,2.815-1.146,2.815-2.647c0-2.038-1.568-2.73-5.008-2.73h-5.261v0.067
			c0.978,0.522,1.113,0.994,1.113,2.26v6.896c0,1.3-0.136,1.807-1.113,2.346v0.066h4.805c3.743,0,5.953-0.994,5.953-3.438
			C28.703,93.504,27.117,92.476,25.398,92.324z M22.649,97.704h-0.505V87.62h0.792c1.248,0,2.326,0.894,2.326,2.158
			c0,1.382-0.759,2.142-2.006,2.698v0.084c1.265,0.252,2.193,1.23,2.193,2.715C25.449,96.81,24.066,97.704,22.649,97.704z"/>
		<path fill="#FFFFFF" d="M75.832,86.928c1.011,0.522,1.449,0.994,1.449,3.945v3.152l-6.525-7.166h-4.334v0.066
			c1.046,0.54,1.653,1.062,1.653,4.014v3.49c0,2.951-0.439,3.458-1.484,3.996v0.067h4.267v-0.067
			c-1.029-0.538-1.501-1.045-1.501-3.996V89.87l7.755,8.792h1.451v-7.789c0-2.951,0.455-3.423,1.467-3.946V86.86h-4.198V86.928z"/>
		<path fill="#FFFFFF" d="M105.828,96.152v-6.964c0-1.266,0.119-1.736,1.13-2.26v-0.067h-5.362v0.067
			c1.045,0.522,1.147,0.994,1.147,2.26v6.964c0,1.298-0.102,1.737-1.147,2.276v0.066h5.362v-0.066
			C105.947,97.889,105.828,97.45,105.828,96.152z"/>
		<path fill="#FFFFFF" d="M122.926,94.989c-1.788,2.546-2.041,2.68-3.728,2.68h-1.113v-4.687h0.524c1.399,0,2.124,0.421,2.899,1.467
			h0.102v-3.71h-0.102c-0.758,1.029-1.465,1.484-2.899,1.484h-0.524V87.67h1.198c1.433,0,2.006,0.505,3.188,2.396h0.118v-3.205
			h-8.768v0.066c1.061,0.523,1.18,0.995,1.18,2.261v6.896c0,1.3-0.119,1.807-1.18,2.346v0.066h9.223v-3.507H122.926z"/>
		<path fill="#FFFFFF" d="M111.73,96.405l-3.237-5.159l1.366-1.569c1.585-1.838,2.36-2.292,3.524-2.747v-0.067h-5.294v0.067
			c1.483,0.438,1.669,1.313,0.54,2.766l-2.429,3.104l1.772,3.39c1.18,2.242,1.518,2.31,2.664,2.31h3.052v-0.066
			C113.012,98.175,112.574,97.737,111.73,96.405z"/>
		<path fill="#FFFFFF" d="M95.373,88.985c0-0.995,0.793-1.602,1.553-1.602c1.146,0,2.241,1.215,3.203,2.833h0.066V87.3
			c-0.64-0.286-1.82-0.69-3.253-0.69c-2.074,0-4.199,1.331-4.199,3.388c0,3.392,5.616,4.249,5.616,6.323
			c0,1.079-0.962,1.67-1.822,1.67c-1.315,0-2.596-1.534-3.726-3.372h-0.068v3.32c0.827,0.49,2.411,0.811,3.776,0.811
			c2.328,0,4.369-1.313,4.369-3.727C100.888,91.617,95.373,91.144,95.373,88.985z"/>
		<path fill="#FFFFFF" d="M87.381,92.88c0.961,0.54,1.096,1.13,1.096,1.872v2.984c-0.321,0.068-0.725,0.102-1.18,0.102
			c-2.074,0-3.609-1.703-3.609-5.191c0-2.985,1.232-5.263,3.287-5.263c1.366,0,2.767,1.129,3.862,2.833h0.067V87.35
			c-0.572-0.271-1.888-0.741-3.692-0.741c-3.018,0-6.964,2.175-6.964,6.222c0,3.911,3.541,5.918,6.694,5.918
			c1.315,0,3.304-0.403,4.181-0.675h0.067V94.72c0-1.113,0.051-1.332,0.877-1.84v-0.067h-4.688v0.066H87.381z"/>
	</g>
</g>
</svg>
